<?xml version="1.0" encoding="UTF-8" standalone="no"?>
<svg
   xmlns:dc="http://purl.org/dc/elements/1.1/"
   xmlns:cc="http://creativecommons.org/ns#"
   xmlns:rdf="http://www.w3.org/1999/02/22-rdf-syntax-ns#"
   xmlns:svg="http://www.w3.org/2000/svg"
   xmlns="http://www.w3.org/2000/svg"
   xmlns:xlink="http://www.w3.org/1999/xlink"
   xmlns:sodipodi="http://sodipodi.sourceforge.net/DTD/sodipodi-0.dtd"
   xmlns:inkscape="http://www.inkscape.org/namespaces/inkscape"
   inkscape:version="1.0 (4035a4f, 2020-05-01)"
   height="512"
   width="512"
   sodipodi:docname="delta.svg"
   id="svg2224"
   version="1.1"
   viewBox="0 0 511.99998 512.00002">
  <metadata
     id="metadata2228">
    <rdf:RDF>
      <cc:Work
         rdf:about="">
        <dc:format>image/svg+xml</dc:format>
        <dc:type
           rdf:resource="http://purl.org/dc/dcmitype/StillImage" />
        <dc:title>logo</dc:title>
      </cc:Work>
    </rdf:RDF>
  </metadata>
  <sodipodi:namedview
     inkscape:current-layer="Capa_2"
     inkscape:window-maximized="1"
     inkscape:window-y="0"
     inkscape:window-x="0"
     inkscape:cy="234.09747"
     inkscape:cx="184.21001"
     inkscape:zoom="0.89571167"
     showgrid="false"
     id="namedview2226"
     inkscape:window-height="719"
     inkscape:window-width="1366"
     inkscape:pageshadow="2"
     inkscape:pageopacity="0"
     guidetolerance="10"
     gridtolerance="10"
     objecttolerance="10"
     borderopacity="1"
     bordercolor="#666666"
     pagecolor="#ffffff" />
  <defs
     id="defs2010">
    <style
       id="style1944">.cls-1{fill:none;}.cls-2{fill:#9dcadf;stroke:#211915;stroke-miterlimit:10;}.cls-24,.cls-3{fill:#211915;}.cls-4{fill:#76aadb;}.cls-5{fill:url(#Degradado_sin_nombre_8);}.cls-6{fill:url(#Degradado_sin_nombre_8-2);}.cls-7{opacity:0.86;}.cls-8{isolation:isolate;}.cls-9{fill:#161616;}.cls-10{clip-path:url(#clip-path);}.cls-11{fill:#282828;}.cls-12{fill:#2c2c2c;}.cls-13{fill:#2f2f2f;}.cls-14{fill:#323232;}.cls-15{fill:#424242;}.cls-16{clip-path:url(#clip-path-2);}.cls-17{clip-path:url(#clip-path-3);}.cls-18{fill:#3d3d3d;}.cls-19{fill:#151515;}.cls-20{clip-path:url(#clip-path-4);}.cls-21{clip-path:url(#clip-path-5);}.cls-22{fill:url(#Degradado_sin_nombre_8-3);}.cls-23{fill:url(#Degradado_sin_nombre_8-4);}.cls-24{font-size:18px;font-family:KozGoPro-Regular-90ms-RKSJ-H, Kozuka Gothic Pro;}.cls-25{fill:url(#Degradado_sin_nombre_8-5);}.cls-26{fill:url(#Degradado_sin_nombre_8-6);}.cls-27{fill:url(#Degradado_sin_nombre_8-7);}.cls-28{fill:url(#Degradado_sin_nombre_8-8);}.cls-29{fill:url(#Degradado_sin_nombre_8-9);}.cls-30{fill:url(#Degradado_sin_nombre_8-10);}.cls-31{opacity:0.82;}.cls-32{fill:#484848;}.cls-33{fill:#464646;}.cls-34{fill:#b2b2b2;}.cls-35{clip-path:url(#clip-path-6);}.cls-36{clip-path:url(#clip-path-7);}.cls-37{clip-path:url(#clip-path-8);}.cls-38{fill:#2a2a2a;}.cls-39{clip-path:url(#clip-path-9);}.cls-40{fill:#303030;}.cls-41{fill:#363636;}.cls-42{clip-path:url(#clip-path-10);}.cls-43{fill:#333;}.cls-44{clip-path:url(#clip-path-11);}.cls-45{clip-path:url(#clip-path-12);}.cls-46{clip-path:url(#clip-path-13);}.cls-47{clip-path:url(#clip-path-14);}.cls-48{clip-path:url(#clip-path-15);}.cls-49{clip-path:url(#clip-path-16);}</style>
    <linearGradient
       gradientUnits="userSpaceOnUse"
       gradientTransform="rotate(-19.58,217.6397,218.83067)"
       y2="178.75999"
       x2="109.19"
       y1="178.75999"
       x1="79.760002"
       id="Degradado_sin_nombre_8">
      <stop
         id="stop1946"
         stop-color="#002e82"
         offset="0" />
      <stop
         id="stop1948"
         stop-color="#0060ab"
         offset="0.45" />
      <stop
         id="stop1950"
         stop-color="#009bdb"
         offset="1" />
    </linearGradient>
    <linearGradient
       xlink:href="#Degradado_sin_nombre_8"
       y2="177.58"
       x2="108.67"
       y1="177.58"
       x1="79.239998"
       id="Degradado_sin_nombre_8-2" />
    <clipPath
       transform="translate(-34.73 -30.53)"
       id="clip-path">
      <path
         id="path1954"
         d="m 309.19,223.3 -7.6,-1.12 a 39.87,39.87 0 0 1 3.57,-14 l 7.6,1.12 a 39.87,39.87 0 0 0 -3.57,14 z"
         class="cls-1" />
    </clipPath>
    <clipPath
       transform="translate(-34.73 -30.53)"
       id="clip-path-2">
      <path
         id="path1957"
         d="m 309.19,223.3 a 39.87,39.87 0 0 1 3.57,-14 l 13,-1.83 z"
         class="cls-1" />
    </clipPath>
    <clipPath
       transform="translate(-34.73 -30.53)"
       id="clip-path-3">
      <polyline
         id="polyline1960"
         points="325.81 207.47 309.19 223.3 309.28 222.33 309.38 221.37 309.51 220.42 309.65 219.49 309.82 218.56 310 217.65 310.2 216.75 310.41 215.86 310.65 214.99 310.9 214.13 311.17 213.28 311.46 212.45 311.76 211.64 312.08 210.84 312.42 210.06 312.77 209.3 325.81 207.47"
         class="cls-1" />
    </clipPath>
    <clipPath
       transform="translate(-34.73 -30.53)"
       id="clip-path-4">
      <path
         id="path1963"
         d="m 300.94,219.57 -13.86,-6.47 25.1,-3.5 a 40,40 0 0 0 -3.57,14 l -12.2,11.61 z"
         class="cls-1" />
    </clipPath>
    <clipPath
       transform="translate(-34.73 -30.53)"
       id="clip-path-5">
      <polyline
         id="polyline1966"
         points="311.82 210.35 311.49 211.13 311.17 211.93 310.87 212.75 310.58 213.58 310.31 214.42 310.06 215.28 309.82 216.15 309.61 217.04 309.41 217.94 309.23 218.85 309.07 219.78 308.92 220.72 308.8 221.66 308.69 222.62 308.6 223.59 296.4 235.21 300.94 219.57 287.08 213.09 312.18 209.59 311.82 210.35"
         class="cls-1" />
    </clipPath>
    <linearGradient
       xlink:href="#Degradado_sin_nombre_8"
       gradientTransform="rotate(-19,217.45346,217.58017)"
       y2="152.17999"
       x2="402.28"
       y1="152.17999"
       x1="346.56"
       id="Degradado_sin_nombre_8-3" />
    <linearGradient
       xlink:href="#Degradado_sin_nombre_8"
       gradientTransform="rotate(-19,217.45346,217.58017)"
       y2="149.94"
       x2="401.31"
       y1="149.94"
       x1="345.59"
       id="Degradado_sin_nombre_8-4" />
    <linearGradient
       xlink:href="#Degradado_sin_nombre_8"
       gradientTransform="matrix(16.998913,0,0,18.607973,-1102.0486,-5213.626)"
       y2="294.03"
       x2="92.400002"
       y1="294.03"
       x1="65.779999"
       id="Degradado_sin_nombre_8-5" />
    <linearGradient
       xlink:href="#Degradado_sin_nombre_8"
       y2="297.63"
       x2="73.730003"
       y1="297.63"
       x1="64.879997"
       id="Degradado_sin_nombre_8-6" />
    <linearGradient
       xlink:href="#Degradado_sin_nombre_8"
       y2="242.66"
       x2="78.959999"
       y1="242.66"
       x1="49.52"
       id="Degradado_sin_nombre_8-7" />
    <linearGradient
       xlink:href="#Degradado_sin_nombre_8"
       y2="186.86"
       x2="226.25"
       y1="186.86"
       x1="199.62"
       id="Degradado_sin_nombre_8-8" />
    <linearGradient
       xlink:href="#Degradado_sin_nombre_8"
       y2="190.46001"
       x2="207.58"
       y1="190.46001"
       x1="198.72"
       id="Degradado_sin_nombre_8-9" />
    <linearGradient
       xlink:href="#Degradado_sin_nombre_8"
       y2="186.55"
       x2="240.98"
       y1="186.55"
       x1="211.55"
       id="Degradado_sin_nombre_8-10" />
    <clipPath
       transform="translate(-34.73 -30.53)"
       id="clip-path-6">
      <path
         id="path1977"
         d="m 307.46,278.11 a 11.82,11.82 0 0 0 -1.35,-1.19 l 2.7,-1.67 z"
         class="cls-1" />
    </clipPath>
    <clipPath
       transform="translate(-34.73 -30.53)"
       id="clip-path-7">
      <polyline
         id="polyline1980"
         points="307.46 278.11 307.38 278.03 307.3 277.95 307.22 277.87 307.14 277.79 307.06 277.71 306.98 277.64 306.89 277.56 306.81 277.49 306.72 277.41 306.64 277.34 306.55 277.27 306.46 277.2 306.38 277.13 306.29 277.06 306.2 276.99 306.11 276.92 308.81 275.25 307.46 278.11"
         class="cls-1" />
    </clipPath>
    <clipPath
       transform="translate(-34.73 -30.53)"
       id="clip-path-8">
      <path
         id="path1983"
         d="m 307.46,278.11 -1.55,-0.65 a 11.82,11.82 0 0 0 -1.35,-1.19 l 1.55,0.65 a 11.82,11.82 0 0 1 1.35,1.19 z"
         class="cls-1" />
    </clipPath>
    <clipPath
       transform="translate(-34.73 -30.53)"
       id="clip-path-9">
      <path
         id="path1986"
         d="m 300.48,292.13 -1.55,-0.65 a 28.15,28.15 0 0 1 -1.27,-10.54 l 1.55,0.65 a 28.15,28.15 0 0 0 1.27,10.54 z"
         class="cls-1" />
    </clipPath>
    <clipPath
       transform="translate(-34.73 -30.53)"
       id="clip-path-10">
      <path
         id="path1989"
         d="m 292.27,301.25 -1.55,-0.65 a 12.45,12.45 0 0 1 -6.35,-6 l 1.55,0.65 a 12.45,12.45 0 0 0 6.35,6 z"
         class="cls-1" />
    </clipPath>
    <clipPath
       transform="translate(-34.73 -30.53)"
       id="clip-path-11">
      <path
         id="path1992"
         d="m 285.92,295.22 a 13.47,13.47 0 0 1 -1.1,-3.23 l 9.09,-0.09 0.87,10.11 a 12.37,12.37 0 0 1 -8.86,-6.79 z"
         class="cls-1" />
    </clipPath>
    <clipPath
       transform="translate(-34.73 -30.53)"
       id="clip-path-12">
      <polyline
         id="polyline1995"
         points="294.79 302.01 294.1 301.86 293.42 301.67 292.75 301.44 292.1 301.18 291.46 300.88 290.84 300.54 290.24 300.17 289.66 299.75 289.1 299.31 288.56 298.82 288.05 298.31 287.56 297.76 287.11 297.17 286.68 296.56 286.29 295.9 285.92 295.22 285.74 294.83 285.57 294.43 285.41 294.03 285.27 293.63 285.14 293.22 285.02 292.81 284.92 292.4 284.83 291.99 293.92 291.9 294.79 302.01"
         class="cls-1" />
    </clipPath>
    <clipPath
       transform="translate(-34.73 -30.53)"
       id="clip-path-13">
      <path
         id="path1998"
         d="m 285.92,295.22 -1.55,-0.65 a 13.47,13.47 0 0 1 -1.1,-3.23 l 1.55,0.65 a 13.47,13.47 0 0 0 1.1,3.23 z"
         class="cls-1" />
    </clipPath>
    <clipPath
       transform="translate(-34.73 -30.53)"
       id="clip-path-14">
      <path
         id="path2001"
         d="m 300.82,291.75 6.18,-13.1 a 12.6,12.6 0 0 1 2.3,3.26 14.35,14.35 0 0 1 -5.8,18.57 12.82,12.82 0 0 1 -7.75,1.66 l 4.73,-10 a 28.15,28.15 0 0 1 -1.27,-10.54 l -14.6,9 a 14.44,14.44 0 0 1 7.11,-13.93 12.53,12.53 0 0 1 13.92,0.81 l -6.1,3.75 a 28.15,28.15 0 0 0 1.28,10.52 z"
         class="cls-1" />
    </clipPath>
    <clipPath
       transform="translate(-34.73 -30.53)"
       id="clip-path-15">
      <polyline
         id="polyline2004"
         points="309.84 283.17 310.25 284.45 310.52 285.76 310.67 287.08 310.69 288.4 310.59 289.71 310.37 291.01 310.04 292.29 309.59 293.53 309.03 294.73 308.36 295.87 307.58 296.96 306.71 297.97 305.73 298.9 304.66 299.74 303.5 300.48 302.55 300.97 301.6 301.38 300.63 301.7 299.65 301.95 298.67 302.11 297.69 302.2 296.71 302.21 295.75 302.14 300.48 292.13 300.09 290.78 299.77 289.43 299.51 288.08 299.32 286.75 299.19 285.43 299.13 284.13 299.14 282.85 299.2 281.59 284.61 290.58 284.54 289.56 284.55 288.53 284.63 287.51 284.78 286.5 285 285.51 285.29 284.53 285.65 283.57 286.08 282.64 286.57 281.74 287.13 280.87 287.74 280.04 288.42 279.26 289.16 278.52 289.95 277.84 290.81 277.21 291.72 276.65 292.6 276.19 293.5 275.8 294.4 275.49 295.32 275.24 296.24 275.06 297.15 274.96 298.07 274.92 298.98 274.95 299.88 275.04 300.77 275.2 301.64 275.43 302.49 275.71 303.32 276.06 304.13 276.47 304.9 276.93 305.64 277.46 299.55 281.21 299.48 282.47 299.47 283.75 299.53 285.05 299.66 286.37 299.85 287.7 300.11 289.04 300.43 290.39 300.82 291.75 307 278.65 307.33 279.01 307.65 279.38 307.96 279.76 308.26 280.16 308.54 280.58 308.81 281.01 309.06 281.46 309.3 281.92 309.84 283.17"
         class="cls-1" />
    </clipPath>
    <clipPath
       transform="translate(-34.73 -30.53)"
       id="clip-path-16">
      <path
         id="path2007"
         d="m 301.38,275.23 1.55,0.65 a 12.63,12.63 0 0 0 -11.21,0.77 14.44,14.44 0 0 0 -7.11,13.93 l -1.55,-0.65 a 14.44,14.44 0 0 1 7.11,-13.93 12.63,12.63 0 0 1 11.21,-0.77 z"
         class="cls-1" />
    </clipPath>
  </defs>
  <title
     id="title2012">logo</title>
  <g
     data-name="Capa 1"
     id="Capa_1">
    <path
       id="path2014"
       transform="translate(-34.73,-30.53)"
       d="M 426.5,169.42"
       class="cls-2" />
  </g>
  <g
     data-name="Capa 2"
     id="Capa_2">
    <path
       d="M 233.95183,1.1987955 A 233.56507,255.67355 0 0 0 16.153265,166.67172 L 313.63424,155.51418 A 469.50997,513.95222 0 0 0 252.24555,344.39233 L 101.1478,467.1977 A 233.90505,256.0457 0 0 0 458.12501,180.62767 l -197.712,160.96622 a 469.50997,513.95222 0 0 1 61.35537,-188.87817 l 124.27139,-4.65201 A 233.56507,255.67355 0 0 0 233.95183,1.1987955 Z m 278.88843,140.1776145 -55.24648,2.0353 a 231.69517,253.62668 0 0 1 12.08504,32.96368 z M 8.649795,193.09353 a 232.37514,254.371 0 0 0 78.38757,263.12826 L 151.44726,278.31954 Z"
       style="fill:url(#Degradado_sin_nombre_8-5);stroke-width:17.7853"
       id="path2097" />
  </g>
</svg>
