<?xml version="1.0" standalone="no"?>
<!DOCTYPE svg PUBLIC "-//W3C//DTD SVG 20010904//EN"
 "http://www.w3.org/TR/2001/REC-SVG-20010904/DTD/svg10.dtd">
<svg version="1.0" xmlns="http://www.w3.org/2000/svg"
 width="700.000000pt" height="700.000000pt" viewBox="0 0 700.000000 700.000000"
 preserveAspectRatio="xMidYMid meet">
<metadata>
Created by potrace 1.14, written by Peter Selinger 2001-2017
</metadata>
<g transform="translate(0.000000,700.000000) scale(0.100000,-0.100000)"
fill="#000000" stroke="none">
<path d="M3220 6993 c-178 -18 -438 -71 -624 -128 -350 -106 -712 -292 -1020
-524 -783 -590 -1256 -1452 -1328 -2426 -14 -187 -13 -476 1 -590 26 -209 71
-452 82 -441 2 3 5 -14 5 -36 1 -22 6 -43 11 -47 6 -3 13 -26 17 -51 11 -71
92 -301 161 -459 64 -143 172 -348 205 -386 9 -11 32 -47 50 -80 92 -169 432
-563 595 -691 44 -35 98 -78 120 -97 212 -180 602 -404 898 -515 241 -91 613
-181 768 -185 48 -1 83 -5 77 -8 -35 -22 543 -26 732 -5 645 73 1220 316 1750
741 952 763 1412 2076 1154 3295 -93 443 -288 884 -556 1257 -453 632 -1121
1092 -1861 1283 -329 85 -470 100 -882 98 -176 0 -336 -3 -355 -5z m655 -1348
c696 -105 1315 -601 1580 -1265 81 -203 128 -416 140 -635 26 -451 -147 -963
-453 -1347 -74 -92 -255 -276 -294 -298 -15 -8 -88 -56 -162 -107 -136 -93
-355 -203 -428 -217 -21 -4 -43 -12 -50 -19 -13 -13 -134 -39 -353 -77 -98
-16 -160 -20 -337 -19 -120 1 -216 5 -213 9 2 4 -42 16 -98 28 -104 20 -258
63 -312 87 -16 7 -67 29 -113 49 -45 21 -91 38 -102 39 -11 1 -21 6 -24 13 -2
6 -60 45 -129 88 -69 42 -164 111 -212 154 -48 42 -109 95 -135 117 -27 22
-61 57 -77 77 -15 20 -67 86 -114 145 -47 59 -90 119 -94 132 -4 14 -22 47
-40 75 -72 113 -175 346 -175 396 0 10 -3 20 -8 22 -10 4 -40 147 -63 308 -11
74 -25 138 -32 142 -9 6 -9 8 1 8 9 0 12 30 12 118 0 108 11 218 41 392 13 80
116 383 158 467 17 34 31 66 31 71 0 5 8 16 18 25 9 8 31 42 47 74 17 32 33
60 36 63 18 14 59 85 59 101 0 11 5 18 11 16 6 -1 16 7 22 17 37 62 315 320
432 401 255 177 563 302 860 349 125 19 444 20 570 1z m-2438 -1330 c0 -8 -7
-15 -15 -15 -12 0 -12 3 -2 15 7 8 13 15 15 15 1 0 2 -7 2 -15z m-247 -243 c0
-4 -10 -13 -22 -21 -23 -14 -23 -14 -4 8 20 22 26 25 26 13z m-180 -175 c0 -2
-10 -12 -22 -23 l-23 -19 19 23 c18 21 26 27 26 19z m-135 -267 c10 -11 16
-20 13 -20 -3 0 -13 9 -23 20 -10 11 -16 20 -13 20 3 0 13 -9 23 -20z m-205
-80 c0 -5 -5 -10 -11 -10 -5 0 -7 5 -4 10 3 6 8 10 11 10 2 0 4 -4 4 -10z
m-90 -96 c0 -8 -5 -12 -10 -9 -6 4 -8 11 -5 16 9 14 15 11 15 -7z m-270 -264
c0 -5 -5 -10 -11 -10 -5 0 -7 5 -4 10 3 6 8 10 11 10 2 0 4 -4 4 -10z m1201
-57 c13 -16 12 -17 -3 -4 -10 7 -18 15 -18 17 0 8 8 3 21 -13z m7 -438 c-3 -3
-9 2 -12 12 -6 14 -5 15 5 6 7 -7 10 -15 7 -18z m382 -570 c63 -63 112 -115
110 -115 -3 0 -57 52 -120 115 -63 63 -112 115 -110 115 3 0 57 -52 120 -115z
m281 -82 c13 -16 12 -17 -3 -4 -10 7 -18 15 -18 17 0 8 8 3 21 -13z m1396
-399 c-3 -3 -12 -4 -19 -1 -8 3 -5 6 6 6 11 1 17 -2 13 -5z m94 -727 c-10 -9
-11 -8 -5 6 3 10 9 15 12 12 3 -3 0 -11 -7 -18z m-1696 -107 c33 -33 57 -60
54 -60 -2 0 -31 27 -64 60 -33 33 -57 60 -54 60 2 0 31 -27 64 -60z m1620 32
c-3 -3 -11 0 -18 7 -9 10 -8 11 6 5 10 -3 15 -9 12 -12z m-314 -99 c13 -16 12
-17 -3 -4 -17 13 -22 21 -14 21 2 0 10 -8 17 -17z m-150 -376 c-10 -9 -11 -8
-5 6 3 10 9 15 12 12 3 -3 0 -11 -7 -18z"/>
<path d="M3713 4866 c-17 -14 -44 -48 -59 -74 -15 -26 -58 -95 -96 -154 -67
-106 -148 -246 -148 -260 0 -3 111 -9 248 -11 745 -14 942 -16 942 -9 0 18
-61 103 -120 166 -167 178 -483 348 -675 364 -55 4 -64 2 -92 -22z"/>
<path d="M2452 4093 c-66 -171 -74 -212 -79 -388 -6 -175 5 -259 52 -411 37
-121 29 -117 278 -127 117 -4 249 -6 295 -5 l82 3 -61 110 c-34 61 -148 268
-254 460 -246 446 -257 465 -265 465 -4 0 -26 -48 -48 -107z"/>
<path d="M4110 4150 c0 -11 112 -217 477 -874 45 -82 84 -151 87 -153 8 -9 63
109 89 192 40 129 50 217 44 392 -7 234 -56 401 -126 430 -49 21 -571 33 -571
13z"/>
<path d="M2595 2949 c20 -65 159 -217 279 -306 128 -95 300 -167 477 -199 83
-15 90 -15 114 0 15 10 38 38 53 63 15 25 64 106 110 180 86 140 146 252 139
259 -2 3 -130 6 -283 9 -153 2 -418 7 -588 11 l-308 6 7 -23z"/>
</g>
</svg>
